<svg xmlns="http://www.w3.org/2000/svg" viewBox="0 0 685.29 622.56"><title>logo claurea</title><g id="logo_general" data-name="logo general"><g id="Capa_10" data-name="Capa 10"><path d="M297.78,371.16h42c-.73.87-1.27,1.55-1.86,2.19-4.27,4.65-7.5,9.49-7.21,16.42.48,11.62.19,23.27.27,34.91,0,5.71.73,11.28,3.83,16.3A12.48,12.48,0,0,0,355,442.69a18.64,18.64,0,0,0,5.25-13.24c-.19-13.92-.26-27.85,0-41.77.1-5.78-2.23-9.74-6.87-12.77-1.48-1-2.8-2.18-4.19-3.29l.32-.85h72.32c-.5,5.13-1,10.1-1.54,15.74,3-3.27,5.49-6.13,8.16-8.77,3.68-3.63,7.69-6.77,13.15-7.19,4.55-.34,10.94,4.41,12.53,9.33,1.2,3.7-1.6,10.12-5.41,12.42-3.15,1.89-4.91,1.61-7.39-1.2-5.62-6.35-11.89-6.08-16.42,1.18a20.32,20.32,0,0,0-3.23,9.66c-.31,13.26-.14,26.53.05,39.79.09,5.71,2.66,10,8.35,12a8.37,8.37,0,0,1,2.67,1.17,2.68,2.68,0,0,1,.93,2.1,2.33,2.33,0,0,1-1.7,1.39c-2.38.17-4.78.13-7.17.09-17.94-.27-35.87-.61-53.81-.84-8-.11-8,0-9.89-7.91-.12-.52-.28-1-.58-2.11a42.53,42.53,0,0,0-4.22,3.25c-10.21,10.12-22.39,11.57-34.49,4-8.54-5.32-13-13.06-13.05-23-.1-13.05.2-26.09.18-39.14,0-3.24.13-6.73-1-9.62-1-2.61-3.66-4.63-5.75-6.74a64.12,64.12,0,0,0-5-4.14Zm91.26,2.4c-4.8,3.29-7.15,8-7.14,14,0,17.38,0,34.76,0,52.15a29.8,29.8,0,0,0,.38,5.51,9.44,9.44,0,0,0,7.51,7.27c3.49.53,5.83-1.82,6.94-4.37a28.83,28.83,0,0,0,2.4-10.61c.3-14.66-.13-29.34.36-44C399.75,384.63,396.8,378.06,389,373.56Z"/><path d="M176.79,432.4c3.83-.27,5,1.51,5.37,4.61,1.92,17.44-6.64,29-20.87,37.38-22.28,13.15-53.24,8.51-70.06-7-15.71-14.51-23.55-32.6-26-53.32-2-17.54-.56-34.84,6.57-51.2C81.59,340.4,97,324,121.58,317.68a49.07,49.07,0,0,1,32.82,2.91c12.69,5.57,20,18.94,17.86,32.06-2.22,13.47-14.6,21.77-27,18.14-6.93-2-14.09-11.29-14-18.48.11-8,5.54-12.35,12-15.19,3.09-1.35,6.94-1.07,10.46-1.33a24.41,24.41,0,0,1,4.58.51c.26-3.11-1.47-4.71-3.39-6.17-13.63-10.38-33.65-7.29-44.47,6.88-9,11.74-13.64,25.08-15.12,39.7-2,19.32-1.42,38.45,3.86,57.27,3.51,12.52,9.87,23.11,20.67,30.75,13.54,9.57,27.28,7.87,40.31-.12,6.67-4.09,11-10.13,14.16-17,1.22-2.69,1.45-5.85,1.95-8.83C176.59,436.73,176.61,434.66,176.79,432.4Z"/><path d="M581.23,464c-5.75,6.32-12.19,10.08-19.9,11-10.21,1.21-18.63-2.63-25-10.52-5.84-7.24-7.39-15.56-3.75-24.21,4-9.62,11.75-15.46,21.54-18.53,7.87-2.48,15.81-4.77,23.76-6.94,2.77-.75,3.91-2,3.66-5-.45-5.18.07-10.52-.92-15.57-2.26-11.6-11.73-16.91-22.11-12.89A27.23,27.23,0,0,0,554,384.1c.4.71.45,1,.6,1.06,7,4,8.66,9.37,5.13,16.65-3.15,6.5-10.1,9.42-16.34,6.85a13.55,13.55,0,0,1-7.61-16.73c2.6-8.56,9.19-13.27,16.51-17.1a38,38,0,0,1,42.9,5.56c6.75,6.21,9.78,14.17,9.68,23.39-.18,17.18-.23,34.37-.33,51.55,0,2.83-.12,5.66,0,8.49.3,7.17,3.3,10.83,10,13.17a6.93,6.93,0,0,1,3.88,3.32c1.36,3.4.08,4.86-3.57,5.55-7.45,1.41-14.51,0-21.37-2.77-7.37-3-10.18-9.36-12-16.42A26.66,26.66,0,0,1,581.23,464ZM581,422.9c-5.51,2.07-10.72,4.15-16,6-10.83,3.78-14,18.48-10.71,26.58,1.78,4.35,4.75,7.8,9.41,8.68s8.7-1.47,11.47-5.35c2.11-2.95,5.28-6,5.57-9.23C581.47,441,581,432.26,581,422.9Z"/><path d="M243.92,382a13.91,13.91,0,0,0,1.51,1.07c6.55,3.45,6.74,8.49,4.84,14.11s-6.51,8.45-12.74,8S226.8,401,226,395c-.63-4.91,1.52-9.13,4.55-12.85a32,32,0,0,1,21.5-11.76c12-1.5,23.22.22,32.59,8.68,5.88,5.31,8.2,12.16,8.24,19.87.07,12.18,0,24.36,0,36.54a40.93,40.93,0,0,0,.27,5.86c.8,5.47,4.14,8.78,9.57,9.61,1.41.21,2.86.06,2.76,2.25-.1,1.88.18,3.8-2.36,4.27-1.49.27-3,.65-4.49.79-4.11.38-8.23.72-12.35,1-8.39.5-12.05-1.87-15.19-9.73-.19-.48-.35-1-.25-.7-4.83,3.91-9.44,8.38-14.73,11.79-9,5.77-21,4.29-28.61-2C216,449,218.15,430.27,229.91,422a66.49,66.49,0,0,1,13.58-6.84c8-3.18,16.09-5.91,24.16-8.79,2-.73,2.72-2,2.63-4.23-.25-6,.07-11.95-3.2-17.4C262.49,377.12,250.76,375.48,243.92,382Zm25.58,33c-7.5,2.92-15.45,4.56-21.88,9.71A18.21,18.21,0,0,0,242,445c2.11,5.63,7,8.48,12.25,6.78,8.3-2.7,13.19-9.17,14.94-17.08C270.58,428.63,269.5,422,269.5,415Z"/><path d="M476.92,418.28c-1.64,17,6,31.43,22.7,34.8,11.38,2.29,22.87-6.32,23.74-18,.11-1.4.16-2.8.23-4.16,4.46-.54,6,.46,6.19,4.46.3,6.46-1.14,12.42-5.26,17.7-15.8,20.22-40.94,17.8-56.61,2.26-14.31-14.21-19.42-32-14.79-51.5,3.7-15.64,19.18-33,38-34,19-1,34.15,11,37.34,30.49.39,2.36-1,5.66-2.68,7.61-8.24,9.66-19.1,13.14-31.52,12.15C488.54,419.68,482.84,418.93,476.92,418.28Zm13-7.2c1.57,0,4.61,0,7.66,0,3.37.05,5.5-1.6,6.75-4.64A25.21,25.21,0,0,0,502.78,383a9.62,9.62,0,0,0-9.27-4.94c-6.6.23-12.87,5.09-14.75,12.72-1.4,5.65-1.61,11.59-2.34,17.4-.21,1.7.64,2.27,2.28,2.32C482,410.55,485.21,410.81,490,411.08Z"/><path d="M178.94,349a58.46,58.46,0,0,1,5.24-3.81c7.19-4.05,14.44-8,21.67-12,4.06-2.23,6.2-1.1,6.25,3.67q.19,22.83.1,45.66c-.08,20-.39,40-.39,60a46.51,46.51,0,0,0,1.58,10.9c1,4.16,4,6.59,8.24,7.41.42.08,1,.07,1.24.33.81.82,2.06,1.73,2.09,2.65,0,.73-1.38,2.05-2.3,2.19-7.5,1.21-15.06,2.1-22.56,3.27-5.9.92-11.75,2.19-17.65,3.08-1.35.2-3.78-.16-4.09-.92-.8-2,.61-3.23,2.61-4.05,4.89-2,7.24-6.19,8.09-11.07a68.1,68.1,0,0,0,.79-11.69q0-42.09-.15-84.17c0-6.15-2.13-8.87-8-10.58C181,349.76,180.45,349.53,178.94,349Z"/><path d="M267,485.83c1.74-2.67,2.82-5,4.49-6.78,7.63-8.12,17.36-11.48,28.25-12.42,15.93-1.37,31.08,2.06,46.11,6.77,8.71,2.73,17.52,5.4,26.78,5.05A48.1,48.1,0,0,0,386,476.34c3.22-1.07,5.87-3.82,8.81-5.77,1.61-1.07,3.3-2,5.31-3.23a8.34,8.34,0,0,1-1.55,8.94c-2.73,3.16-5.7,6.4-9.2,8.56-13.3,8.22-27.55,9.17-42.34,4.52-10.36-3.26-20.74-6.48-31.15-9.59a55.1,55.1,0,0,0-25.18-1.58c-4.37.75-8.56,2.94-12.63,4.9C274.92,484.6,272,486.47,267,485.83Z"/><path d="M226.59,224.1c7.16.85,14.4,1.27,21.45,2.64,18.37,3.56,35.34,10.29,49.39,23.19,7.62,7,12.35,15.92,17,24.89a72.49,72.49,0,0,1,3.19,6.87,31.79,31.79,0,0,0,10.74,13.77c12.55,9.74,20.51,23.38,29.34,36.22,2.68,3.9,4.82,8.17,7,12,7-9.62,13.73-19.64,21.23-29.07a218.72,218.72,0,0,1,18.92-20.66,61.64,61.64,0,0,0,14.23-20.79c8.56-20.39,23.81-33.73,44.16-41.57a111.58,111.58,0,0,1,37.37-7.74c1.76-.05,3.53,0,5.87,0-8.42,17-13.34,35.19-27,48.71C469.52,282.33,457.21,287,444,290q-7.17,1.63-14.43,2.84c-13,2.14-23.52,8.56-32.43,18.14-10.86,11.67-19,25.07-25.91,39.31-.94,1.95-.44,4.81,0,7.14.39,2.11,1.59,4.08,2.46,6.16-6.77,1.42-11.46-2.18-12.07-8.45a18.56,18.56,0,0,0-2.39-8c-7.44-11.62-14.68-23.42-23-34.43a49.39,49.39,0,0,0-31.54-19.31,218.5,218.5,0,0,1-33.08-8.89c-12.72-4.51-22.58-13.48-29.26-25-6.34-11-11.24-22.78-16.78-34.22Zm92.17,67.6.6-1.41c-7.09-9.19-16.5-15.61-26-21.88-11.05-7.26-22-14.63-33.1-21.85-.93-.61-2.38-.43-3.59-.62.21,1.21,0,2.74.71,3.57a38.42,38.42,0,0,0,6.77,7c13.39,9.64,26.81,19.23,40.49,28.44C308.89,287.84,314,289.49,318.76,291.7Zm96.66-3.4.72,1.21c2.15-.7,4.54-1,6.43-2.17,17.1-10.42,34.17-20.92,48.59-35,1.36-1.33,1.78-3.61,2.64-5.45-2,.44-4.36.34-5.91,1.41-12.31,8.52-24.61,17.06-36.61,26C425.65,278.49,420.69,283.6,415.42,288.3Z"/><path d="M362.5,220.88c-12-5.13-18.38-15.21-22.64-26.75-8.09-21.88-2.78-42.23,8.42-61.44,4.45-7.64,10.13-14.57,15.73-22.49,3.74,4.62,6.91,8.47,10,12.38,12.59,15.9,21.67,33.19,20.19,54.26-1.26,18-9.09,32.73-23.54,43.7-2.13,1.62-3.07,3.16-3,5.84q.69,37.91,1.16,75.81c.12,9.66,0,19.32-.14,29a34.34,34.34,0,0,1-1.13,5.94l-1.66.25c-.95-3.35-2.68-6.69-2.74-10.06-.4-23.19-.5-46.38-.58-69.58,0-11.3.2-22.6.27-33.91a21.07,21.07,0,0,0-.41-3.05c3.71,2.85,4.34,2.69,5-1.51,3.61-23,2.53-45.95-.17-68.91-.16-1.32-1.08-2.56-1.64-3.84l-1.22.26a40.53,40.53,0,0,0-.77,5.1c-.38,12.18-.78,24.37-1,36.56C362.47,199.24,362.54,210.06,362.5,220.88Z"/><path d="M503.66,340.85c-21.61,7.39-42.6,14.55-65.32,9-15.9-3.87-24.67-9.89-33.74-23.11,2.64-.35,5-.77,7.4-1,15.71-1.26,31.15.71,46.51,3.83,3.83.77,7.78.92,12.48,1.44-4-5.39-21.72-10.23-37.79-12-13.48-1.47-26.13,2.36-39.19,4.57,14-9.9,28-19.69,46.09-20C468.49,303.3,487.44,319.09,503.66,340.85Z"/><path d="M229.82,339c9.13-8.18,17.67-17.13,27.48-24.36,22.36-16.5,54.08-13.7,74.07,5.68a8.86,8.86,0,0,1,2.33,4.15,72.84,72.84,0,0,0-35.63-4.72c-18,1.86-31.14,5.86-34.14,11,4.63-.36,8.69-.41,12.66-1,15.13-2.36,30.22-5,45.65-3.55,2,.2,4,.47,6.74.8a56.55,56.55,0,0,1-21.75,18.71c-13,6.31-26.57,7.58-40.45,4.69-12.15-2.54-24.13-5.94-36.19-9C230.34,340.57,230.08,339.77,229.82,339Z"/><path d="M411,222.28c-8.07,6.26-13,15.15-18.22,23.62s-9.84,17.57-15.34,27.52c-.82-3.12-1.88-5.5-2-7.93-1.24-20.94,6.06-38.76,21.61-52.5,9.61-8.49,20.65-15.36,30.7-22.71,1.28.88,1.71,1,1.73,1.21,1.57,18.08,1.34,36-6.18,53a54.14,54.14,0,0,1-25.69,26.89,48.42,48.42,0,0,0-23.22,24.25,29.69,29.69,0,0,1-4,6.37c.17-6.5,2.55-12.2,5.94-17.62,10.81-17.25,21.62-34.5,32.24-51.86,1.76-2.87,2.58-6.32,3.83-9.5Z"/><path d="M358.07,299.07c-2.25-3.79-4.62-7.51-6.73-11.37-3-5.49-6.81-10-12.57-12.81-27.23-13.32-36.95-36.69-37.25-65.37-.07-6.06,0-12.11,0-17.94,1.28-.27,1.68-.48,1.82-.36,11.44,8.71,23.67,16.58,34.07,26.39,16,15.07,20.29,34.7,17.64,56.09a30.78,30.78,0,0,1-1,3.31c-1.93-3.48-3.53-5.87-4.67-8.47-6.24-14.23-14.37-27.35-23.47-39.89-1.62-2.24-3.84-4-5.78-6l-2,1.28c1.78,4.25,3,8.83,5.42,12.7,9.71,15.66,19.93,31,29.6,46.68,2.81,4.57,4.43,9.88,6.6,14.84Z"/></g></g></svg>